<?xml version="1.0" encoding="UTF-8" standalone="no"?>
<svg
   xmlns:dc="http://purl.org/dc/elements/1.1/"
   xmlns:cc="http://creativecommons.org/ns#"
   xmlns:rdf="http://www.w3.org/1999/02/22-rdf-syntax-ns#"
   xmlns:svg="http://www.w3.org/2000/svg"
   xmlns="http://www.w3.org/2000/svg"
   xmlns:sodipodi="http://sodipodi.sourceforge.net/DTD/sodipodi-0.dtd"
   xmlns:inkscape="http://www.inkscape.org/namespaces/inkscape"
   enable-background="new 0 0 64 64"
   viewBox="0 0 64 64"
   version="1.1"
   id="svg22"
   sodipodi:docname="logo.svg"
   inkscape:version="0.92.3 (2405546, 2018-03-11)">
  <metadata
     id="metadata28">
    <rdf:RDF>
      <cc:Work
         rdf:about="">
        <dc:format>image/svg+xml</dc:format>
        <dc:type
           rdf:resource="http://purl.org/dc/dcmitype/StillImage" />
        <dc:title></dc:title>
      </cc:Work>
    </rdf:RDF>
  </metadata>
  <defs
     id="defs26" />
  <sodipodi:namedview
     pagecolor="#ffffff"
     bordercolor="#666666"
     borderopacity="1"
     objecttolerance="10"
     gridtolerance="10"
     guidetolerance="10"
     inkscape:pageopacity="0"
     inkscape:pageshadow="2"
     inkscape:window-width="1920"
     inkscape:window-height="1016"
     id="namedview24"
     showgrid="false"
     inkscape:zoom="3.6875"
     inkscape:cx="-35.501368"
     inkscape:cy="27.767625"
     inkscape:window-x="0"
     inkscape:window-y="27"
     inkscape:window-maximized="1"
     inkscape:current-layer="svg22" />
  <g
     transform="matrix(0.22523442,0,0,0.22523442,3.1790243,3.1610538)"
     id="g18"
     style="opacity:0.5">
    <path
       d="M 165.96354,15.838426 C 162.07318,3.863082 149.21233,-2.6900984 137.23908,1.2023607 125.26374,5.0927213 118.71056,17.953574 122.60302,29.92682 l 58.94714,181.36551 c 4.04774,11.18636 16.1322,17.47305 27.73194,14.13455 12.09915,-3.48327 19.47488,-16.33363 15.6139,-28.21665 -0.14689,-0.45325 -58.93246,-181.371804 -58.93246,-181.371804"
       id="path2"
       inkscape:connector-curvature="0"
       style="fill:#dfa22f" />
    <path
       d="M 74.626098,45.515541 C 70.733639,33.542295 57.872787,26.989115 45.899541,30.879475 33.924197,34.769836 27.371016,47.630688 31.263475,59.606033 L 90.210623,240.97154 c 4.047738,11.18636 16.132197,17.47305 27.731937,14.13246 12.09914,-3.48118 19.47488,-16.33154 15.6139,-28.21666 C 133.40957,226.4362 74.626098,45.515541 74.626098,45.515541"
       id="path4"
       inkscape:connector-curvature="0"
       style="fill:#3cb187" />
    <path
       d="m 240.16157,166.04538 c 11.97535,-3.89036 18.52643,-16.75122 14.63607,-28.72656 -3.89036,-11.97325 -16.75121,-18.52643 -28.72446,-14.63607 L 44.707672,181.632 c -11.18636,4.04564 -17.473049,16.1301 -14.134557,27.72984 3.483278,12.09914 16.333639,19.47488 28.216656,15.6139 0.453245,-0.14689 181.371799,-58.93036 181.371799,-58.93036"
       id="path6"
       inkscape:connector-curvature="0"
       style="fill:#ce1e5b" />
    <path
       d="m 82.507541,217.27056 c 11.805377,-3.83581 27.020589,-8.77954 43.347939,-14.0842 -3.83581,-11.80538 -8.77955,-27.02269 -14.0863,-43.35213 l -43.350033,14.09049 z"
       id="path8"
       inkscape:connector-curvature="0"
       style="fill:#392538" />
    <path
       d="m 173.84708,187.59134 c 16.3882,-5.32354 31.6202,-10.27357 43.34794,-14.08419 -3.83581,-11.80538 -8.78164,-27.02689 -14.0884,-43.36053 l -43.35003,14.09049 z"
       id="path10"
       inkscape:connector-curvature="0"
       style="fill:#bb242a" />
    <path
       d="M 210.48446,74.705836 C 222.4577,70.815475 229.01088,57.954623 225.12052,45.979279 221.23016,34.006033 208.36931,27.452852 196.39397,31.343213 L 15.028459,90.292459 C 3.8420984,94.338098 -2.4445902,106.42256 0.896,118.0223 4.3771803,130.12144 17.227541,137.49718 29.112656,133.6362 29.563803,133.48931 210.48446,74.705836 210.48446,74.705836"
       id="path12"
       inkscape:connector-curvature="0"
       style="fill:#72c5cd" />
    <path
       d="M 52.822033,125.93312 C 64.62741,122.09731 79.84682,117.15148 96.176262,111.84682 90.852721,95.456525 85.902688,80.224525 82.092066,68.494688 L 38.731541,82.587279 Z"
       id="path14"
       inkscape:connector-curvature="0"
       style="fill:#248c73" />
    <path
       d="m 144.15947,96.256 c 16.3924,-5.325639 31.6265,-10.275672 43.35633,-14.088393 -5.32564,-16.392394 -10.27567,-31.628591 -14.08839,-43.360525 l -43.35843,14.09259 z"
       id="path16"
       inkscape:connector-curvature="0"
       style="fill:#62803a" />
  </g>
  <path
     d="m 28.8,40.5 -1.4,-3.9 c 0,0 -2.3,2.6 -5.7,2.6 -3,0 -5.1,-2.7 -5.1,-7.1 0,-5.6 2.7,-7.6 5.4,-7.6 3.8,0 5,2.6 6.1,5.9 l 1.4,4.5 c 1.4,4.4 4,7.9 11.5,7.9 5.4,0 9.1,-1.7 9.1,-6.3 0,-3.7 -2,-5.6 -5.7,-6.5 l -2.8,-0.6 c -2,-0.3 -2.6,-1.2 -2.6,-2.5 0,-1.5 1.2,-2.4 3.1,-2.4 2.1,0 3.2,0.8 3.4,2.8 l 4.4,-0.5 c -0.3,-4.1 -3,-5.8 -7.5,-5.8 -3.9,0 -7.7,1.5 -7.7,6.5 0,3.1 1.4,5 5,5.9 l 3,0.7 c 2.2,0.5 3,1.5 3,2.8 0,1.7 -1.6,2.4 -4.5,2.4 -4.4,0 -6.2,-2.4 -7.3,-5.7 L 32.5,29.1 C 30.7,23.2 27.8,21 22,21 c -6.4,0 -9.8,4.2 -9.8,11.4 0,6.9 3.4,10.6 9.5,10.6 4.7,-0.1 7.1,-2.5 7.1,-2.5 z"
     id="path20"
     inkscape:connector-curvature="0"
     style="fill:#d51007" />
</svg>
